<svg xmlns="http://www.w3.org/2000/svg" viewBox="0 0 64 64">
	<path fill="#031a26" d="M57.6,64H6.4A6.407,6.407,0,0,1,0,57.6V6.4A6.407,6.407,0,0,1,6.4,0H57.6A6.407,6.407,0,0,1,64,6.4V57.6A6.407,6.407,0,0,1,57.6,64ZM24.435,46.443h0l2.719,1.105c.024.06,2.406,5.962,2.73,5.962h4.879c.332,0,2.539-5.922,2.561-5.982l2.717-1.1a61.7,61.7,0,0,0,6.182,2.351.086.086,0,0,0,.057-.013l3.455-3.383c.234-.225-2.486-5.941-2.514-6l1.124-2.666c.062-.024,6.1-2.358,6.1-2.675V29.265c0-.324-6.051-2.48-6.112-2.5L47.21,24.1c.026-.059,2.606-5.888,2.381-6.112l-3.454-3.374a.087.087,0,0,0-.059-.014,57.439,57.439,0,0,0-6.072,2.466l-2.717-1.1C37.265,15.906,34.878,10,34.558,10h-4.88c-.333,0-2.535,5.922-2.557,5.982l-2.715,1.1a61.74,61.74,0,0,0-6.188-2.35.086.086,0,0,0-.058.013L14.708,18.13c-.236.234,2.483,5.945,2.51,6L16.1,26.8c-.062.024-6.1,2.35-6.1,2.667v4.78c0,.326,6.051,2.484,6.112,2.506l1.122,2.658c-.026.059-2.607,5.892-2.381,6.116L18.309,48.9a.083.083,0,0,0,.056.014,58.605,58.605,0,0,0,6.07-2.473Zm7.789-7.718a6.972,6.972,0,1,1,7.121-6.972A7.056,7.056,0,0,1,32.224,38.724Z"/>
</svg>
