<svg xmlns="http://www.w3.org/2000/svg" viewBox="0 0 64 64">
	<path fill="#031a26" d="M57.6,64H6.4A6.407,6.407,0,0,1,0,57.6V6.4A6.407,6.407,0,0,1,6.4,0H57.6A6.407,6.407,0,0,1,64,6.4V57.6A6.407,6.407,0,0,1,57.6,64ZM14,46.57a1,1,0,0,0-.6,1.8L17.971,51.8a.992.992,0,0,0,.6.2,1,1,0,0,0,.76-.349l6.857-8a1,1,0,1,0-1.518-1.3l-6.248,7.286L14.6,46.77A.992.992,0,0,0,14,46.57ZM32.5,46a1,1,0,0,0,0,2h18a1,1,0,1,0,0-2ZM14,31.571a1,1,0,0,0-.6,1.8L17.971,36.8a.992.992,0,0,0,.6.2,1,1,0,0,0,.76-.349l6.857-8a1,1,0,0,0-.108-1.409,1,1,0,0,0-1.41.108l-6.248,7.288L14.6,31.771A.992.992,0,0,0,14,31.571ZM32.5,32a1,1,0,1,0,0,2h18a1,1,0,1,0,0-2ZM14,17.572a1,1,0,0,0-.6,1.8L17.971,22.8a.992.992,0,0,0,.6.2,1,1,0,0,0,.76-.349l6.857-8a1,1,0,1,0-1.518-1.3l-6.248,7.288L14.6,17.771A.992.992,0,0,0,14,17.572ZM32.5,18a1,1,0,1,0,0,2h18a1,1,0,1,0,0-2Z"/>
</svg>
