<svg xmlns="http://www.w3.org/2000/svg" viewBox="0 0 64 64">

	<path fill="#5cbcee" d="M57.6,0H6.4A6.419,6.419,0,0,0,0,6.4V57.6A6.419,6.419,0,0,0,6.4,64H57.6A6.419,6.419,0,0,0,64,57.6V6.4A6.419,6.419,0,0,0,57.6,0ZM50.24,23.36c-.32,14.72-9.6,24.96-23.68,25.6-5.76.32-9.92-1.6-13.76-3.84A16.988,16.988,0,0,0,25.28,41.6a8.644,8.644,0,0,1-8-6.08,12.907,12.907,0,0,0,3.52,0c-3.84-1.28-6.4-3.52-6.72-8.64a6.451,6.451,0,0,0,3.52.96c-2.88-1.6-4.8-7.68-2.56-11.52,4.16,4.48,9.28,8.32,17.6,8.96-2.24-8.96,9.92-13.76,14.72-7.68a21.558,21.558,0,0,0,5.44-1.92,9.047,9.047,0,0,1-3.52,4.8,18.344,18.344,0,0,0,4.48-1.28C53.44,20.8,51.84,22.08,50.24,23.36Z"/>

</svg>
